<?xml version="1.0" encoding="utf-8"?>
<svg version="1.1" xmlns:xlink="http://www.w3.org/1999/xlink" width="110px" height="101px" xmlns="http://www.w3.org/2000/svg">
  <g transform="matrix(1 0 0 1 -457 -90 )">
    <path d="M 104.387755102041 20.1868489583333  C 106.060424169668 20.8444010416667  107.358943577431 21.7868923611111  108.28331332533 23.0143229166667  C 110.044017607043 25.5130208333333  110.440176070428 28.3404947916667  109.471788715486 31.4967447916667  L 91.3145258103241 91.0709635416667  C 90.4781912765106 93.8765190972222  88.7945178071229 96.2327473958333  86.2635054021609 98.1396484375  C 83.7324929971989 100.046549479167  81.0364145658263 101  78.1752701080432 101  L 17.2328931572629 101  C 13.843537414966 101  10.5752300920368 99.8273654513889  7.42797118847539 97.4820963541667  C 4.28071228491397 95.1368272569444  2.09083633453381 92.2545572916667  0.858343337334934 88.8352864583333  C -0.198079231692677 85.8982204861111  -0.242096838735494 83.1145833333333  0.726290516206483 80.484375  C 0.726290516206483 80.3090277777778  0.792316926770708 79.7172309027778  0.92436974789916 78.708984375  C 1.05642256902761 77.7007378472222  1.14445778311325 76.8897569444444  1.18847539015606 76.2760416666667  C 1.23249299719888 75.9253472222222  1.16646658663465 75.4541015625  0.990396158463385 74.8623046875  C 0.814325730292117 74.2705078125  0.748299319727891 73.8430989583333  0.792316926770708 73.580078125  C 0.880352140856343 73.0978732638889  1.05642256902761 72.6375868055555  1.32052821128451 72.19921875  C 1.58463385354142 71.7608506944444  1.94777911164466 71.2457682291667  2.40996398559424 70.6539713541667  C 2.87214885954382 70.0621744791667  3.23529411764706 69.5470920138889  3.49939975990396 69.1087239583333  C 4.51180472188876 67.4429253472222  5.50220088035214 65.4373914930555  6.47058823529412 63.0921223958333  C 7.43897559023609 60.7468532986111  8.09923969587835 58.7413194444444  8.45138055222089 57.0755208333333  C 8.58343337334934 56.6371527777778  8.59443777511004 55.9796006944444  8.484393757503 55.1028645833333  C 8.37434973989596 54.2261284722222  8.36334533813525 53.6124131944444  8.45138055222089 53.26171875  C 8.58343337334934 52.7795138888889  8.95758303321329 52.1657986111111  9.57382953181273 51.4205729166667  C 10.1900760304122 50.6753472222222  10.5642256902761 50.1712239583333  10.6962785114046 49.908203125  C 11.6206482593037 48.330078125  12.5450180072029 46.3135850694444  13.469387755102 43.8587239583333  C 14.3937575030012 41.4038628472222  14.9439775910364 39.4312065972222  15.1200480192077 37.9407552083333  C 15.1640656262505 37.5462239583333  15.109043617447 36.8448350694444  14.9549819927971 35.8365885416667  C 14.8009203681473 34.8283420138889  14.811924769908 34.2146267361111  14.9879951980792 33.9954427083333  C 15.1640656262505 33.4255642361111  15.6482593037215 32.7570529513889  16.4405762304922 31.9899088541667  C 17.2328931572629 31.2227647569444  17.7170868347339 30.7296006944444  17.8931572629052 30.5104166666667  C 18.7294917967187 29.3706597222222  19.6648659463786 27.5185546875  20.6992797118848 24.9541015625  C 21.733693477391 22.3896484375  22.3389355742297 20.2745225694444  22.515006002401 18.6087239583333  C 22.5590236094438 18.2580295138889  22.4929971988796 17.6991102430555  22.3169267707083 16.9319661458333  C 22.140856342537 16.1648220486111  22.0968387354942 15.583984375  22.1848739495798 15.189453125  C 22.2729091636655 14.8387586805555  22.4709883953581 14.4442274305555  22.7791116446579 14.005859375  C 23.0872348939576 13.5674913194444  23.4833933573429 13.0633680555555  23.9675870348139 12.4934895833333  C 24.4517807122849 11.9236111111111  24.8259303721489 11.4633246527778  25.0900360144058 11.1126302083333  C 25.4421768707483 10.5865885416667  25.8053221288515 9.91807725694444  26.1794717887155 9.10709635416667  C 26.5536214485794 8.29611545138888  26.8837535014006 7.52897135416667  27.1698679471789 6.8056640625  C 27.4559823929572 6.08235677083333  27.8081232492997 5.29329427083333  28.2262905162065 4.4384765625  C 28.6444577831133 3.58365885416667  29.0736294517807 2.88226996527777  29.5138055222089 2.33430989583333  C 29.9539815926371 1.78634982638888  30.5372148859544 1.2712673611111  31.2635054021609 0.7890625  C 31.9897959183674 0.306857638888875  32.7821128451381 0.0547960069444432  33.640456182473 0.0328776041666704  C 34.4987995198079 0.0109592013888752  35.5442176870748 0.13151041666667  36.7767106842737 0.39453125  L 36.7106842737095 0.591796875  C 38.3833533413365 0.197265625  39.5058023209284 0  40.078031212485 0  L 90.3241296518607 0  C 93.5814325730292 0  96.0904361744698 1.22743055555555  97.8511404561825 3.68229166666667  C 99.6118447378952 6.13715277777777  100.008003201281 8.98654513888888  99.0396158463385 12.23046875  L 80.9483793517407 71.8046875  C 79.3637454981993 77.0212673611111  77.7901160464186 80.3857421875  76.2274909963986 81.8981119791667  C 74.6648659463786 83.4104817708333  71.8367346938775 84.1666666666667  67.7430972388956 84  L 10.3661464585834 84  C 9.17767106842737 84.1666666666667  8.34133653461385 84.4954427083333  7.85714285714286 85.1529947916667  C 7.37294917967187 85.8543836805556  7.35094037615046 86.796875  7.79111644657863 87.98046875  C 8.84753901560624 91.0490451388889  12.0168067226891 92.5833333333333  17.2989195678271 92  L 78.2412965186074 92  C 79.5178071228491 92.5833333333333  80.750300120048 92.2435980902778  81.9387755102041 91.5641276041667  C 83.1272509003601 90.8846571180556  83.8975590236094 89.9750434027778  84.249699879952 88.8352864583333  L 104.05762304922 23.9348958333333  C 104.365746298519 22.9704861111111  104.475790316126 21.7211371527778  104.387755102041 20.1868489583333  Z M 39.4177671068427 18.9375  L 38.031212484994 23.1458333333333  C 37.8551420568227 23.7157118055555  37.8991596638655 24.2088758680555  38.1632653061224 24.6253255208333  C 38.4273709483793 25.0417751736111  38.8675470188075 25.25  39.483793517407 26  L 79.6278511404562 26  C 80.2000800320128 25.25  80.7613045218087 25.0417751736111  81.3115246098439 24.6253255208333  C 81.8617446978792 24.2088758680555  82.2248899559824 23.7157118055555  82.4009603841537 23.1458333333333  L 83.7875150060024 18.9375  C 83.9635854341737 18.3676215277778  83.9195678271308 17.8744574652778  83.6554621848739 17.4580078125  C 83.391356542617 17.0415581597222  82.9511804721889 16.8333333333333  82.3349339735894 17  L 42.1908763505402 17  C 41.6186474589836 16.8333333333333  41.0574229691877 17.0415581597222  40.5072028811525 17.4580078125  C 39.9569827931172 17.8744574652778  39.593837535014 18.3676215277778  39.4177671068427 18.9375  Z M 33.937575030012 35.7708333333333  L 32.5510204081633 39.9791666666667  C 32.374949979992 40.5490451388889  32.4189675870348 41.0422092013889  32.6830732292917 41.4586588541667  C 32.9471788715486 41.8751085069444  33.3873549419768 42.0833333333333  34.0036014405762 42  L 74.1476590636255 42  C 74.7198879551821 42.0833333333333  75.281112444978 41.8751085069444  75.8313325330132 41.4586588541667  C 76.3815526210484 41.0422092013889  76.7446978791517 40.5490451388889  76.9207683073229 39.9791666666667  L 78.3073229291717 35.7708333333333  C 78.4833933573429 35.2009548611111  78.4393757503001 34.7077907986111  78.1752701080432 34.2913411458333  C 77.9111644657863 33.8748914930556  77.4709883953581 33.6666666666667  76.8547418967587 34  L 36.7106842737095 34  C 36.1384553821529 33.6666666666667  35.5772308923569 33.8748914930556  35.0270108043217 34.2913411458333  C 34.4767907162865 34.7077907986111  34.1136454581833 35.2009548611111  33.937575030012 35.7708333333333  Z " fill-rule="nonzero" fill="#ffffff" stroke="none" transform="matrix(1 0 0 1 457 90 )" />
  </g>
</svg>