<?xml version="1.0" encoding="utf-8"?>
<svg version="1.1" xmlns:xlink="http://www.w3.org/1999/xlink" width="36px" height="36px" xmlns="http://www.w3.org/2000/svg">
  <g transform="matrix(1 0 0 1 -410 -231 )">
    <path d="M 8.96484375 2.4140625  C 11.72265625 0.804687499999997  14.734375 0  18 0  C 21.265625 0  24.27734375 0.804687499999997  27.03515625 2.4140625  C 29.79296875 4.0234375  31.9765625 6.20703125  33.5859375 8.96484375  C 35.1953125 11.72265625  36 14.734375  36 18  C 36 21.265625  35.1953125 24.27734375  33.5859375 27.03515625  C 31.9765625 29.79296875  29.79296875 31.9765625  27.03515625 33.5859375  C 24.27734375 35.1953125  21.265625 36  18 36  C 14.734375 36  11.72265625 35.1953125  8.96484375 33.5859375  C 6.20703125 31.9765625  4.0234375 29.79296875  2.4140625 27.03515625  C 0.8046875 24.27734375  0 21.265625  0 18  C 0 14.734375  0.8046875 11.72265625  2.4140625 8.96484375  C 4.0234375 6.20703125  6.20703125 4.0234375  8.96484375 2.4140625  Z M 20.7890625 29.77734375  C 20.9296875 29.62890625  21 29.4453125  21 29.2265625  L 21 24.7734375  C 21 24.5546875  20.9296875 24.37109375  20.7890625 24.22265625  C 20.6484375 24.07421875  20.4765625 24  20.2734375 24  L 15.7734375 24  C 15.5703125 24  15.390625 24.078125  15.234375 24.234375  C 15.078125 24.390625  15 24.5703125  15 24.7734375  L 15 29.2265625  C 15 29.4296875  15.078125 29.609375  15.234375 29.765625  C 15.390625 29.921875  15.5703125 30  15.7734375 30  L 20.2734375 30  C 20.4765625 30  20.6484375 29.92578125  20.7890625 29.77734375  Z M 20.70703125 21.57421875  C 20.85546875 21.45703125  20.9375 21.3203125  20.953125 21.1640625  L 21.375 6.609375  C 21.375 6.421875  21.296875 6.28125  21.140625 6.1875  C 20.984375 6.0625  20.796875 6  20.578125 6  L 15.421875 6  C 15.203125 6  15.015625 6.0625  14.859375 6.1875  C 14.703125 6.28125  14.625 6.421875  14.625 6.609375  L 15.0234375 21.1640625  C 15.0234375 21.3203125  15.1015625 21.45703125  15.2578125 21.57421875  C 15.4140625 21.69140625  15.6015625 21.75  15.8203125 21.75  L 20.15625 21.75  C 20.375 21.75  20.55859375 21.69140625  20.70703125 21.57421875  Z " fill-rule="nonzero" fill="#ffffff" stroke="none" transform="matrix(1 0 0 1 410 231 )" />
  </g>
</svg>