<?xml version="1.0" encoding="utf-8"?>
<svg version="1.1" xmlns:xlink="http://www.w3.org/1999/xlink" width="18px" height="22px" xmlns="http://www.w3.org/2000/svg">
  <g transform="matrix(1 0 0 1 -368 -392 )">
    <path d="M 5 7  L 5 10  L 13 10  L 13 7  C 13 5.89583333333333  12.609375 4.953125  11.828125 4.171875  C 11.046875 3.390625  10.1041666666667 3  9 3  C 7.89583333333333 3  6.953125 3.390625  6.171875 4.171875  C 5.390625 4.953125  5 5.89583333333333  5 7  Z M 17.5625 10.4375  C 17.8541666666667 10.7291666666667  18 11.0833333333333  18 11.5  L 18 20.5  C 18 20.9166666666667  17.8541666666667 21.2708333333333  17.5625 21.5625  C 17.2708333333333 21.8541666666667  16.9166666666667 22  16.5 22  L 1.5 22  C 1.08333333333333 22  0.729166666666667 21.8541666666667  0.4375 21.5625  C 0.145833333333333 21.2708333333333  0 20.9166666666667  0 20.5  L 0 11.5  C 0 11.0833333333333  0.145833333333333 10.7291666666667  0.4375 10.4375  C 0.729166666666667 10.1458333333333  1.08333333333333 10  1.5 10  L 2 10  L 2 7  C 2 5.08333333333333  2.6875 3.4375  4.0625 2.0625  C 5.4375 0.6875  7.08333333333333 0  9 0  C 10.9166666666667 0  12.5625 0.6875  13.9375 2.0625  C 15.3125 3.4375  16 5.08333333333333  16 7  L 16 10  L 16.5 10  C 16.9166666666667 10  17.2708333333333 10.1458333333333  17.5625 10.4375  Z " fill-rule="nonzero" fill="#ffffff" stroke="none" transform="matrix(1 0 0 1 368 392 )" />
  </g>
</svg>