<?xml version="1.0" encoding="utf-8"?>
<svg version="1.1" xmlns:xlink="http://www.w3.org/1999/xlink" width="22px" height="27px" xmlns="http://www.w3.org/2000/svg">
  <g transform="matrix(1 0 0 1 -364 -343 )">
    <path d="M 21.85390625 19.5205078125  C 21.9513020833333 20.4052734375  22 21.345703125  22 22.341796875  C 22 23.619140625  21.6419270833333 24.71484375  20.92578125 25.62890625  C 20.2096354166667 26.54296875  19.3473958333333 27  18.3390625 27  L 3.6609375 27  C 2.65260416666667 27  1.79036458333333 26.54296875  1.07421875 25.62890625  C 0.358072916666667 24.71484375  0 23.619140625  0 22.341796875  C 0 21.345703125  0.0486979166666668 20.4052734375  0.14609375 19.5205078125  C 0.243489583333333 18.6357421875  0.423958333333333 17.7451171875  0.6875 16.8486328125  C 0.951041666666667 15.9521484375  1.28619791666667 15.1845703125  1.69296875 14.5458984375  C 2.09973958333333 13.9072265625  2.63828125 13.3857421875  3.30859375 12.9814453125  C 3.97890625 12.5771484375  4.74947916666667 12.375  5.6203125 12.375  C 7.12135416666667 13.875  8.91458333333333 14.625  11 14.625  C 13.0854166666667 14.625  14.8786458333333 13.875  16.3796875 12.375  C 17.2505208333333 12.375  18.02109375 12.5771484375  18.69140625 12.9814453125  C 19.36171875 13.3857421875  19.9002604166667 13.9072265625  20.30703125 14.5458984375  C 20.7138020833333 15.1845703125  21.0489583333333 15.9521484375  21.3125 16.8486328125  C 21.5760416666667 17.7451171875  21.7565104166667 18.6357421875  21.85390625 19.5205078125  Z M 15.66640625 1.9775390625  C 16.95546875 3.2958984375  17.6 4.88671875  17.6 6.75  C 17.6 8.61328125  16.95546875 10.2041015625  15.66640625 11.5224609375  C 14.37734375 12.8408203125  12.821875 13.5  11 13.5  C 9.178125 13.5  7.62265625 12.8408203125  6.33359375 11.5224609375  C 5.04453125 10.2041015625  4.4 8.61328125  4.4 6.75  C 4.4 4.88671875  5.04453125 3.2958984375  6.33359375 1.9775390625  C 7.62265625 0.6591796875  9.178125 0  11 0  C 12.821875 0  14.37734375 0.6591796875  15.66640625 1.9775390625  Z " fill-rule="nonzero" fill="#ffffff" stroke="none" transform="matrix(1 0 0 1 364 343 )" />
  </g>
</svg>