<?xml version="1.0" encoding="utf-8"?>
<svg version="1.1" xmlns:xlink="http://www.w3.org/1999/xlink" width="18px" height="12px" xmlns="http://www.w3.org/2000/svg">
  <g transform="matrix(1 0 0 1 -4 -7 )">
    <path d="M 17.6748387096774 1.65656565656566  C 17.8916129032258 1.84511784511784  18 2.07407407407407  18 2.34343434343434  C 18 2.61279461279461  17.8916129032258 2.84175084175084  17.6748387096774 3.03030303030303  L 9.26709677419355 10.3434343434343  L 7.68774193548387 11.7171717171717  C 7.47096774193548 11.9057239057239  7.20774193548387 12  6.89806451612903 12  C 6.58838709677419 12  6.32516129032258 11.9057239057239  6.10838709677419 11.7171717171717  L 4.52903225806452 10.3434343434343  L 0.325161290322581 6.68686868686869  C 0.108387096774194 6.4983164983165  0 6.26936026936027  0 6  C 0 5.73063973063973  0.108387096774194 5.5016835016835  0.325161290322581 5.31313131313131  L 1.90451612903226 3.93939393939394  C 2.12129032258065 3.75084175084175  2.38451612903226 3.65656565656566  2.6941935483871 3.65656565656566  C 3.00387096774194 3.65656565656566  3.26709677419355 3.75084175084175  3.48387096774194 3.93939393939394  L 6.89806451612903 6.91919191919192  L 14.5161290322581 0.282828282828283  C 14.7329032258065 0.0942760942760938  14.9961290322581 0  15.3058064516129 0  C 15.6154838709677 0  15.8787096774194 0.0942760942760938  16.0954838709677 0.282828282828283  L 17.6748387096774 1.65656565656566  Z " fill-rule="nonzero" fill="#000000" stroke="none" transform="matrix(1 0 0 1 4 7 )" />
  </g>
</svg>