<?xml version="1.0" encoding="utf-8"?>
<svg version="1.1" xmlns:xlink="http://www.w3.org/1999/xlink" width="14px" height="8px" xmlns="http://www.w3.org/2000/svg">
  <g transform="matrix(1 0 0 1 -116 -24 )">
    <path d="M 13.740234375 0.263888888888889  C 13.9134114583333 0.439814814814814  14 0.648148148148146  14 0.888888888888889  C 14 1.12962962962963  13.9134114583333 1.33796296296296  13.740234375 1.51388888888889  L 7.615234375 7.73611111111111  C 7.44205729166667 7.91203703703704  7.23697916666667 8  7 8  C 6.76302083333333 8  6.55794270833333 7.91203703703704  6.384765625 7.73611111111111  L 0.259765625 1.51388888888889  C 0.0865885416666667 1.33796296296296  0 1.12962962962963  0 0.888888888888889  C 0 0.648148148148146  0.0865885416666667 0.439814814814814  0.259765625 0.263888888888889  C 0.432942708333333 0.0879629629629619  0.638020833333333 0  0.875 0  L 13.125 0  C 13.3619791666667 0  13.5670572916667 0.0879629629629619  13.740234375 0.263888888888889  Z " fill-rule="nonzero" fill="#cfcfcf" stroke="none" transform="matrix(1 0 0 1 116 24 )" />
  </g>
</svg>