<?xml version="1.0" encoding="utf-8"?>
<svg version="1.1" xmlns:xlink="http://www.w3.org/1999/xlink" width="14px" height="8px" xmlns="http://www.w3.org/2000/svg">
  <g transform="matrix(1 0 0 1 -116 -13 )">
    <path d="M 13.740234375 6.48611111111111  C 13.9134114583333 6.66203703703703  14 6.87037037037037  14 7.11111111111111  C 14 7.35185185185185  13.9134114583333 7.56018518518518  13.740234375 7.73611111111111  C 13.5670572916667 7.91203703703704  13.3619791666667 8  13.125 8  L 0.875 8  C 0.638020833333333 8  0.432942708333333 7.91203703703704  0.259765625 7.73611111111111  C 0.0865885416666667 7.56018518518518  0 7.35185185185185  0 7.11111111111111  C 0 6.87037037037037  0.0865885416666667 6.66203703703703  0.259765625 6.48611111111111  L 6.384765625 0.263888888888889  C 6.55794270833333 0.0879629629629619  6.76302083333333 0  7 0  C 7.23697916666667 0  7.44205729166667 0.0879629629629619  7.615234375 0.263888888888889  L 13.740234375 6.48611111111111  Z " fill-rule="nonzero" fill="#cfcfcf" stroke="none" transform="matrix(1 0 0 1 116 13 )" />
  </g>
</svg>