<?xml version="1.0" encoding="utf-8"?>
<svg version="1.1" xmlns:xlink="http://www.w3.org/1999/xlink" width="20px" height="14px" xmlns="http://www.w3.org/2000/svg">
  <g transform="matrix(1 0 0 1 -731 -334 )">
    <path d="M 19.7179350718467 7.765625  C 19.9059783572822 7.85179924242424  20 7.99431818181818  20 8.19318181818182  C 20 8.39867424242424  19.8900124179528 8.61742424242424  19.6700372538584 8.84943181818182  L 16.093666844066 12.7869318181818  C 15.788540003548 13.125  15.361007628171 13.4116950757576  14.8110697179351 13.6470170454545  C 14.2611318076991 13.8823390151515  13.7519957424162 14  13.2836615220862 14  L 1.70303352847259 14  C 1.46177044527231 14  1.24711726095441 13.9569128787879  1.05907397551889 13.8707386363636  C 0.871030690083378 13.7845643939394  0.77700904736562 13.6420454545455  0.77700904736562 13.4431818181818  C 0.77700904736562 13.2376893939394  0.886996629412808 13.0189393939394  1.10697179350718 12.7869318181818  L 4.68334220329963 8.84943181818182  C 4.98846904381763 8.51136363636364  5.41600141919461 8.22466856060606  5.96593932943055 7.98934659090909  C 6.51587723966649 7.75402462121212  7.02501330494944 7.63636363636364  7.4933475252794 7.63636363636364  L 19.073975518893 7.63636363636364  C 19.3152386020933 7.63636363636364  19.5298917864112 7.67945075757576  19.7179350718467 7.765625  Z M 15.6466205428419 3.20170454545455  C 16.1149547631719 3.63920454545455  16.3491218733369 4.16287878787879  16.3491218733369 4.77272727272727  L 16.3491218733369 6.36363636363636  L 7.4933475252794 6.36363636363636  C 6.82632605996097 6.36363636363636  6.12737271598368 6.52107007575758  5.39648749334753 6.8359375  C 4.66560227071137 7.15080492424242  4.08373248181657 7.546875  3.65087812666312 8.02414772727273  L 0.0638637573177222 11.9616477272727  L 0.0106439595529537 12.0213068181818  C 0.0106439595529537 11.9947916666667  0.00886996629412808 11.9533617424242  0.00532197977647685 11.8970170454545  C 0.00177399325882562 11.8406723484848  0 11.7992424242424  0 11.7727272727273  L 0 2.22727272727273  C 0 1.61742424242424  0.234167110164981 1.09375  0.702501330494944 0.65625  C 1.17083555082491 0.21875  1.7314174206138 0  2.38424693986163 0  L 5.79031399680681 0  C 6.44314351605464 0  7.00372538584353 0.21875  7.4720596061735 0.65625  C 7.94039382650346 1.09375  8.17456093666844 1.61742424242424  8.17456093666844 2.22727272727273  L 8.17456093666844 2.54545454545455  L 13.9648749334753 2.54545454545455  C 14.6177044527231 2.54545454545455  15.178286322512 2.76420454545455  15.6466205428419 3.20170454545455  Z " fill-rule="nonzero" fill="#939090" stroke="none" fill-opacity="0.537254901960784" transform="matrix(1 0 0 1 731 334 )" />
  </g>
</svg>