<?xml version="1.0" encoding="utf-8"?>
<svg version="1.1" xmlns:xlink="http://www.w3.org/1999/xlink" width="16px" height="14px" xmlns="http://www.w3.org/2000/svg">
  <g transform="matrix(1 0 0 1 -733 -375 )">
    <path d="M 8.39285714285714 13.8359375  C 8.28571428571429 13.9453125  8.15476190476191 14  8 14  C 7.8452380952381 14  7.71428571428572 13.9453125  7.60714285714286 13.8359375  L 2.03571428571429 8.34895833333333  C 1.97619047619048 8.30034722222222  1.89434523809524 8.22135416666667  1.79017857142857 8.11197916666667  C 1.6860119047619 8.00260416666667  1.52083333333333 7.80360243055556  1.29464285714286 7.51497395833333  C 1.06845238095238 7.22634548611111  0.866071428571429 6.93012152777778  0.6875 6.62630208333333  C 0.508928571428571 6.32248263888889  0.349702380952381 5.95486111111111  0.209821428571429 5.5234375  C 0.0699404761904762 5.09201388888889  0 4.67274305555555  0 4.265625  C 0 2.92881944444444  0.37797619047619 1.88368055555555  1.13392857142857 1.13020833333333  C 1.88988095238095 0.376736111111111  2.93452380952381 0  4.26785714285714 0  C 4.63690476190476 0  5.01339285714286 0.0653211805555547  5.39732142857143 0.195963541666667  C 5.78125 0.326605902777777  6.13839285714286 0.502821180555555  6.46875 0.724609375  C 6.79910714285714 0.946397569444444  7.08333333333333 1.15451388888889  7.32142857142857 1.34895833333333  C 7.55952380952381 1.54340277777778  7.78571428571429 1.75  8 1.96875  C 8.21428571428571 1.75  8.44047619047619 1.54340277777778  8.67857142857143 1.34895833333333  C 8.91666666666667 1.15451388888889  9.20089285714286 0.946397569444444  9.53125 0.724609375  C 9.86160714285714 0.502821180555555  10.21875 0.326605902777777  10.6026785714286 0.195963541666667  C 10.9866071428571 0.0653211805555547  11.3630952380952 0  11.7321428571429 0  C 13.0654761904762 0  14.110119047619 0.376736111111111  14.8660714285714 1.13020833333333  C 15.6220238095238 1.88368055555555  16 2.92881944444444  16 4.265625  C 16 5.60850694444444  15.3184523809524 6.97569444444444  13.9553571428571 8.3671875  L 8.39285714285714 13.8359375  Z " fill-rule="nonzero" fill="#939090" stroke="none" fill-opacity="0.537254901960784" transform="matrix(1 0 0 1 733 375 )" />
  </g>
</svg>