<?xml version="1.0" encoding="utf-8"?>
<svg version="1.1" xmlns:xlink="http://www.w3.org/1999/xlink" width="11px" height="15px" xmlns="http://www.w3.org/2000/svg">
  <g transform="matrix(1 0 0 1 -736 -413 )">
    <path d="M 6.69961051606621 14.8987926136364  C 6.63177539759818 14.9662642045455  6.55144433625446 15  6.45861733203505 15  L 4.61635832521908 15  C 4.52353132099968 15  4.44320025965596 14.9680397727273  4.37536514118793 14.9041193181818  C 4.3075300227199 14.8401988636364  4.27361246348588 14.7585227272727  4.27361246348588 14.6590909090909  L 4.27361246348588 11.1434659090909  L 1.18889970788705 11.1434659090909  C 1.09607270366764 11.1434659090909  1.01574164232392 11.1115056818182  0.947906523855891 11.0475852272727  C 0.880071405387861 10.9836647727273  0.846153846153846 10.9019886363636  0.846153846153846 10.8025568181818  L 0.846153846153846 9.70525568181818  C 0.846153846153846 9.61292613636364  0.880071405387861 9.53302556818182  0.947906523855891 9.46555397727273  C 1.01574164232392 9.39808238636363  1.09607270366764 9.36434659090909  1.18889970788705 9.36434659090909  L 4.27361246348588 9.36434659090909  L 4.27361246348588 8.45880681818182  L 1.18889970788705 8.45880681818182  C 1.09607270366764 8.45880681818182  1.01574164232392 8.42684659090909  0.947906523855891 8.36292613636364  C 0.880071405387861 8.29900568181818  0.846153846153846 8.21732954545455  0.846153846153846 8.11789772727273  L 0.846153846153846 7.00994318181818  C 0.846153846153846 6.91761363636363  0.880071405387861 6.83771306818182  0.947906523855891 6.77024147727273  C 1.01574164232392 6.70276988636363  1.09607270366764 6.66903409090909  1.18889970788705 6.66903409090909  L 3.48101265822785 6.66903409090909  L 0.0428432327166504 0.511363636363636  C -0.0142810775722168 0.397727272727272  -0.0142810775722168 0.284090909090907  0.0428432327166504 0.170454545454545  C 0.114248620577735 0.0568181818181818  0.214216163583252 0  0.342745861733204 0  L 2.42064264849075 0  C 2.55631288542681 0  2.65985069782538 0.0639204545454547  2.73125608568647 0.191761363636364  L 5.03407984420643 4.71946022727273  C 5.16975008114249 4.98934659090909  5.36968516715352 5.43323863636364  5.63388510223953 6.05113636363636  C 5.70529049010062 5.88068181818182  5.81418370658877 5.63920454545454  5.96056475170399 5.32670454545455  C 6.10694579681922 5.01420454545455  6.20512820512821 4.79758522727273  6.25511197663096 4.67684659090909  L 8.30087633885102 0.202414772727273  C 8.35800064913989 0.0674715909090895  8.46153846153846 0  8.61148977604674 0  L 10.6572541382668 0  C 10.7786432976306 0  10.8750405712431 0.0568181818181818  10.9464459591042 0.170454545454545  C 11.0107108081792 0.269886363636363  11.0142810775722 0.37997159090909  10.9571567672834 0.500710227272727  L 7.60467380720545 6.66903409090909  L 9.90749756572541 6.66903409090909  C 10.0003245699448 6.66903409090909  10.0806556312885 6.70276988636363  10.1484907497566 6.77024147727273  C 10.2163258682246 6.83771306818182  10.2502434274586 6.91761363636363  10.2502434274586 7.00994318181818  L 10.2502434274586 8.11789772727273  C 10.2502434274586 8.21732954545455  10.2163258682246 8.29900568181818  10.1484907497566 8.36292613636364  C 10.0806556312885 8.42684659090909  10.0003245699448 8.45880681818182  9.90749756572541 8.45880681818182  L 6.80136319376826 8.45880681818182  L 6.80136319376826 9.36434659090909  L 9.90749756572541 9.36434659090909  C 10.0003245699448 9.36434659090909  10.0806556312885 9.39808238636363  10.1484907497566 9.46555397727273  C 10.2163258682246 9.53302556818182  10.2502434274586 9.61292613636364  10.2502434274586 9.70525568181818  L 10.2502434274586 10.8025568181818  C 10.2502434274586 10.9019886363636  10.2163258682246 10.9836647727273  10.1484907497566 11.0475852272727  C 10.0806556312885 11.1115056818182  10.0003245699448 11.1434659090909  9.90749756572541 11.1434659090909  L 6.80136319376826 11.1434659090909  L 6.80136319376826 14.6590909090909  C 6.80136319376826 14.7514204545455  6.76744563453424 14.8313210227273  6.69961051606621 14.8987926136364  Z " fill-rule="nonzero" fill="#939090" stroke="none" fill-opacity="0.537254901960784" transform="matrix(1 0 0 1 736 413 )" />
  </g>
</svg>