<?xml version="1.0" encoding="utf-8"?>
<svg version="1.1" xmlns:xlink="http://www.w3.org/1999/xlink" width="17px" height="18px" xmlns="http://www.w3.org/2000/svg">
  <g transform="matrix(1 0 0 1 -733 -452 )">
    <path d="M 12.8828125 16.27734375  C 13.0122195512821 16.12890625  13.0769230769231 15.953125  13.0769230769231 15.75  C 13.0769230769231 15.546875  13.0122195512821 15.37109375  12.8828125 15.22265625  C 12.753405448718 15.07421875  12.6001602564103 15  12.4230769230769 15  C 12.2459935897436 15  12.0927483974359 15.07421875  11.9633413461538 15.22265625  C 11.8339342948718 15.37109375  11.7692307692308 15.546875  11.7692307692308 15.75  C 11.7692307692308 15.953125  11.8339342948718 16.12890625  11.9633413461538 16.27734375  C 12.0927483974359 16.42578125  12.2459935897436 16.5  12.4230769230769 16.5  C 12.6001602564103 16.5  12.753405448718 16.42578125  12.8828125 16.27734375  Z M 15.4981971153846 16.27734375  C 15.6276041666667 16.12890625  15.6923076923077 15.953125  15.6923076923077 15.75  C 15.6923076923077 15.546875  15.6276041666667 15.37109375  15.4981971153846 15.22265625  C 15.3687900641026 15.07421875  15.2155448717949 15  15.0384615384615 15  C 14.8613782051282 15  14.7081330128205 15.07421875  14.5787259615385 15.22265625  C 14.4493189102564 15.37109375  14.3846153846154 15.546875  14.3846153846154 15.75  C 14.3846153846154 15.953125  14.4493189102564 16.12890625  14.5787259615385 16.27734375  C 14.7081330128205 16.42578125  14.8613782051282 16.5  15.0384615384615 16.5  C 15.2155448717949 16.5  15.3687900641026 16.42578125  15.4981971153846 16.27734375  Z M 16.7139423076923 12.328125  C 16.9046474358974 12.546875  17 12.8125  17 13.125  L 17 16.875  C 17 17.1875  16.9046474358974 17.453125  16.7139423076923 17.671875  C 16.5232371794872 17.890625  16.2916666666667 18  16.0192307692308 18  L 0.980769230769231 18  C 0.708333333333333 18  0.476762820512821 17.890625  0.286057692307692 17.671875  C 0.0953525641025641 17.453125  0 17.1875  0 16.875  L 0 13.125  C 0 12.8125  0.0953525641025641 12.546875  0.286057692307692 12.328125  C 0.476762820512821 12.109375  0.708333333333333 12  0.980769230769231 12  L 5.73137019230769 12  L 7.11057692307692 13.59375  C 7.50560897435898 14.03125  7.96875 14.25  8.5 14.25  C 9.03125 14.25  9.49439102564103 14.03125  9.88942307692308 13.59375  L 11.2788461538462 12  L 16.0192307692308 12  C 16.2916666666667 12  16.5232371794872 12.109375  16.7139423076923 12.328125  Z M 13.0769230769231 6  C 13.3629807692308 6  13.5639022435897 6.15234375  13.6796875 6.45703125  C 13.7954727564103 6.77734375  13.747796474359 7.05078125  13.5366586538462 7.27734375  L 8.95973557692308 12.52734375  C 8.83713942307692 12.67578125  8.68389423076923 12.75  8.5 12.75  C 8.31610576923077 12.75  8.16286057692308 12.67578125  8.04026442307692 12.52734375  L 3.46334134615385 7.27734375  C 3.25220352564103 7.05078125  3.20452724358974 6.77734375  3.3203125 6.45703125  C 3.43609775641026 6.15234375  3.63701923076923 6  3.92307692307692 6  L 6.53846153846154 6  L 6.53846153846154 0.749999999999999  C 6.53846153846154 0.546874999999998  6.60316506410256 0.371093749999998  6.73257211538462 0.222656249999999  C 6.86197916666667 0.0742187500000011  7.01522435897436 0  7.19230769230769 0  L 9.80769230769231 0  C 9.98477564102564 0  10.1380208333333 0.0742187500000011  10.2674278846154 0.222656249999999  C 10.3968349358974 0.371093749999998  10.4615384615385 0.546874999999998  10.4615384615385 0.749999999999999  L 10.4615384615385 6  L 13.0769230769231 6  Z " fill-rule="nonzero" fill="#939090" stroke="none" fill-opacity="0.537254901960784" transform="matrix(1 0 0 1 733 452 )" />
  </g>
</svg>