<?xml version="1.0" encoding="utf-8"?>
<svg version="1.1" xmlns:xlink="http://www.w3.org/1999/xlink" width="17px" height="17px" xmlns="http://www.w3.org/2000/svg">
  <g transform="matrix(1 0 0 1 -734 -490 )">
    <path d="M 12.1428571428571 3.64285714285714  L 16.0892857142857 3.64285714285714  C 16.3422619047619 3.64285714285714  16.5572916666667 3.73139880952381  16.734375 3.90848214285714  C 16.9114583333333 4.08556547619047  17 4.30059523809524  17 4.55357142857143  L 17 16.0892857142857  C 17 16.3422619047619  16.9114583333333 16.5572916666667  16.734375 16.734375  C 16.5572916666667 16.9114583333333  16.3422619047619 17  16.0892857142857 17  L 6.98214285714286 17  C 6.72916666666667 17  6.51413690476191 16.9114583333333  6.33705357142857 16.734375  C 6.15997023809524 16.5572916666667  6.07142857142857 16.3422619047619  6.07142857142857 16.0892857142857  L 6.07142857142857 13.3571428571429  L 0.910714285714286 13.3571428571429  C 0.657738095238095 13.3571428571429  0.442708333333333 13.2686011904762  0.265625 13.0915178571429  C 0.0885416666666667 12.9144345238095  0 12.6994047619048  0 12.4464285714286  L 0 6.07142857142857  C 0 5.81845238095238  0.0632440476190476 5.54017857142857  0.189732142857143 5.23660714285714  C 0.316220238095238 4.93303571428571  0.468005952380952 4.69270833333333  0.645089285714286 4.515625  L 4.515625 0.645089285714286  C 4.69270833333333 0.468005952380952  4.93303571428571 0.316220238095238  5.23660714285714 0.189732142857143  C 5.54017857142857 0.0632440476190483  5.81845238095238 0  6.07142857142857 0  L 10.0178571428571 0  C 10.2708333333333 0  10.4858630952381 0.0885416666666673  10.6629464285714 0.265625  C 10.8400297619048 0.442708333333333  10.9285714285714 0.657738095238095  10.9285714285714 0.910714285714286  L 10.9285714285714 4.02232142857143  C 11.358630952381 3.76934523809524  11.7633928571429 3.64285714285714  12.1428571428571 3.64285714285714  Z M 10.9285714285714 8.5  L 10.9285714285714 5.66350446428571  L 8.09207589285714 8.5  L 10.9285714285714 8.5  Z M 4.85714285714286 4.85714285714286  L 4.85714285714286 2.02064732142857  L 2.02064732142857 4.85714285714286  L 4.85714285714286 4.85714285714286  Z M 6.26116071428571 8.87946428571429  C 6.38764880952381 8.57589285714286  6.53943452380952 8.33556547619048  6.71651785714286 8.15848214285714  L 9.71428571428571 5.16071428571429  L 9.71428571428571 1.21428571428571  L 6.07142857142857 1.21428571428571  L 6.07142857142857 5.16071428571429  C 6.07142857142857 5.41369047619047  5.98288690476191 5.62872023809524  5.80580357142857 5.80580357142857  C 5.62872023809524 5.9828869047619  5.41369047619048 6.07142857142857  5.16071428571429 6.07142857142857  L 1.21428571428571 6.07142857142857  L 1.21428571428571 12.1428571428571  L 6.07142857142857 12.1428571428571  L 6.07142857142857 9.71428571428571  C 6.07142857142857 9.46130952380952  6.13467261904762 9.18303571428571  6.26116071428571 8.87946428571429  Z M 7.28571428571429 15.7857142857143  L 15.7857142857143 15.7857142857143  L 15.7857142857143 4.85714285714286  L 12.1428571428571 4.85714285714286  L 12.1428571428571 8.80357142857143  C 12.1428571428571 9.05654761904762  12.0543154761905 9.27157738095238  11.8772321428571 9.44866071428571  C 11.7001488095238 9.62574404761905  11.485119047619 9.71428571428571  11.2321428571429 9.71428571428571  L 7.28571428571429 9.71428571428571  L 7.28571428571429 15.7857142857143  Z " fill-rule="nonzero" fill="#939090" stroke="none" fill-opacity="0.537254901960784" transform="matrix(1 0 0 1 734 490 )" />
  </g>
</svg>