<?xml version="1.0" encoding="utf-8"?>
<svg version="1.1" xmlns:xlink="http://www.w3.org/1999/xlink" width="21px" height="16px" xmlns="http://www.w3.org/2000/svg">
  <defs>
    <mask fill="white" id="clip61">
      <path d="M 0 6.98591549295775  C 0 6.98591549295775  2.34129244714697 0.0146012112682129  4.33695652173914 0.225352112676056  C 6.13269367058992 0.414989851627287  8.26581027668034 4.73239436619718  8.26581027668034 4.73239436619718  C 8.26581027668034 4.73239436619718  14.563183148722 1.29412920055874  15.75 2.47887323943662  C 16.8537045984949 3.58065018365576  14.6778656126487 9.23943661971831  14.6778656126487 9.23943661971831  C 14.6778656126487 9.23943661971831  20.8769169816483 12.378377507965  20.7717391304348 13.7464788732394  C 20.6358955335356 15.5134650612742  8.26581027668034 16  8.26581027668034 16  L 0 6.98591549295775  Z " fill-rule="evenodd" />
    </mask>
  </defs>
  <g transform="matrix(1 0 0 1 -89 -14 )">
    <path d="M 0 6.98591549295775  C 0 6.98591549295775  2.34129244714697 0.0146012112682129  4.33695652173914 0.225352112676056  C 6.13269367058992 0.414989851627287  8.26581027668034 4.73239436619718  8.26581027668034 4.73239436619718  C 8.26581027668034 4.73239436619718  14.563183148722 1.29412920055874  15.75 2.47887323943662  C 16.8537045984949 3.58065018365576  14.6778656126487 9.23943661971831  14.6778656126487 9.23943661971831  C 14.6778656126487 9.23943661971831  20.8769169816483 12.378377507965  20.7717391304348 13.7464788732394  C 20.6358955335356 15.5134650612742  8.26581027668034 16  8.26581027668034 16  L 0 6.98591549295775  Z " fill-rule="nonzero" fill="#e9c770" stroke="none" transform="matrix(1 0 0 1 89 14 )" />
    <path d="M 0 6.98591549295775  C 0 6.98591549295775  2.34129244714697 0.0146012112682129  4.33695652173914 0.225352112676056  C 6.13269367058992 0.414989851627287  8.26581027668034 4.73239436619718  8.26581027668034 4.73239436619718  C 8.26581027668034 4.73239436619718  14.563183148722 1.29412920055874  15.75 2.47887323943662  C 16.8537045984949 3.58065018365576  14.6778656126487 9.23943661971831  14.6778656126487 9.23943661971831  C 14.6778656126487 9.23943661971831  20.8769169816483 12.378377507965  20.7717391304348 13.7464788732394  C 20.6358955335356 15.5134650612742  8.26581027668034 16  8.26581027668034 16  L 0 6.98591549295775  Z " stroke-width="4" stroke="#232230" fill="none" transform="matrix(1 0 0 1 89 14 )" mask="url(#clip61)" />
  </g>
</svg>