<?xml version="1.0" encoding="utf-8"?>
<svg version="1.1" xmlns:xlink="http://www.w3.org/1999/xlink" width="16px" height="15px" xmlns="http://www.w3.org/2000/svg">
  <defs>
    <mask fill="white" id="clip62">
      <path d="M 15.7460317460317 6.84343434343434  L 9.39682539682511 0.109427609427605  C 9.39682539682511 0.109427609427605  9.35064935064935 2.86195286195285  7.61904761904762 8.33333333333333  C 5.88744588744589 13.8047138047138  0 14.1666666666667  0 14.1666666666667  C 0 14.1666666666667  5.81048581048553 16.6666666666664  11.6594516594517 12.2895622895621  C 17.5084175084178 7.91245791245792  15.7460317460317 6.84343434343434  15.7460317460317 6.84343434343434  Z " fill-rule="evenodd" />
    </mask>
  </defs>
  <g transform="matrix(1 0 0 1 -55 -52 )">
    <path d="M 15.7460317460317 6.84343434343434  L 9.39682539682511 0.109427609427605  C 9.39682539682511 0.109427609427605  9.35064935064935 2.86195286195285  7.61904761904762 8.33333333333333  C 5.88744588744589 13.8047138047138  0 14.1666666666667  0 14.1666666666667  C 0 14.1666666666667  5.81048581048553 16.6666666666664  11.6594516594517 12.2895622895621  C 17.5084175084178 7.91245791245792  15.7460317460317 6.84343434343434  15.7460317460317 6.84343434343434  Z " fill-rule="nonzero" fill="#232230" stroke="none" transform="matrix(1 0 0 1 55 52 )" />
    <path d="M 15.7460317460317 6.84343434343434  L 9.39682539682511 0.109427609427605  C 9.39682539682511 0.109427609427605  9.35064935064935 2.86195286195285  7.61904761904762 8.33333333333333  C 5.88744588744589 13.8047138047138  0 14.1666666666667  0 14.1666666666667  C 0 14.1666666666667  5.81048581048553 16.6666666666664  11.6594516594517 12.2895622895621  C 17.5084175084178 7.91245791245792  15.7460317460317 6.84343434343434  15.7460317460317 6.84343434343434  Z " stroke-width="4" stroke="#232230" fill="none" transform="matrix(1 0 0 1 55 52 )" mask="url(#clip62)" />
  </g>
</svg>