<?xml version="1.0" encoding="utf-8"?>
<svg version="1.1" xmlns:xlink="http://www.w3.org/1999/xlink" width="20px" height="18px" xmlns="http://www.w3.org/2000/svg">
  <defs>
    <mask fill="white" id="clip63">
      <path d="M 0.298507462686569 8.11888111888076  L 5.97014925373151 0  C 5.97014925373151 0  6.63278096203639 4.71291787801072  10.5653550429673 9.69230769230769  C 12.9548469095886 12.7178607313957  16.4464640553774 14.7516420028526  17.8905574558839 16.3820193485338  C 19.3346508563903 18.012396694215  20 17.7954545454545  20 17.7954545454545  C 20 17.7954545454545  10.5653550429673 18.2727272727274  4.77611940298574 15  C -1.01311623699583 11.7272727272726  0.298507462686569 8.11888111888076  0.298507462686569 8.11888111888076  Z " fill-rule="evenodd" />
    </mask>
  </defs>
  <g transform="matrix(1 0 0 1 -87 -49 )">
    <path d="M 0.298507462686569 8.11888111888076  L 5.97014925373151 0  C 5.97014925373151 0  6.63278096203639 4.71291787801072  10.5653550429673 9.69230769230769  C 12.9548469095886 12.7178607313957  16.4464640553774 14.7516420028526  17.8905574558839 16.3820193485338  C 19.3346508563903 18.012396694215  20 17.7954545454545  20 17.7954545454545  C 20 17.7954545454545  10.5653550429673 18.2727272727274  4.77611940298574 15  C -1.01311623699583 11.7272727272726  0.298507462686569 8.11888111888076  0.298507462686569 8.11888111888076  Z " fill-rule="nonzero" fill="#232230" stroke="none" transform="matrix(1 0 0 1 87 49 )" />
    <path d="M 0.298507462686569 8.11888111888076  L 5.97014925373151 0  C 5.97014925373151 0  6.63278096203639 4.71291787801072  10.5653550429673 9.69230769230769  C 12.9548469095886 12.7178607313957  16.4464640553774 14.7516420028526  17.8905574558839 16.3820193485338  C 19.3346508563903 18.012396694215  20 17.7954545454545  20 17.7954545454545  C 20 17.7954545454545  10.5653550429673 18.2727272727274  4.77611940298574 15  C -1.01311623699583 11.7272727272726  0.298507462686569 8.11888111888076  0.298507462686569 8.11888111888076  Z " stroke-width="4" stroke="#232230" fill="none" transform="matrix(1 0 0 1 87 49 )" mask="url(#clip63)" />
  </g>
</svg>