<?xml version="1.0" encoding="utf-8"?>
<svg version="1.1" xmlns:xlink="http://www.w3.org/1999/xlink" width="9px" height="10px" xmlns="http://www.w3.org/2000/svg">
  <defs>
    <mask fill="white" id="clip65">
      <path d="M 9 10  L 5.25 0  C 5.25 0  -0.825000000000273 1.18181818181835  0.375 5.45454545454545  C 1.57500000000027 9.72727272727256  9 10  9 10  Z " fill-rule="evenodd" />
    </mask>
  </defs>
  <g transform="matrix(1 0 0 1 -56 -47 )">
    <path d="M 9 10  L 5.25 0  C 5.25 0  -0.825000000000273 1.18181818181835  0.375 5.45454545454545  C 1.57500000000027 9.72727272727256  9 10  9 10  Z " fill-rule="nonzero" fill="#ffffff" stroke="none" transform="matrix(1 0 0 1 56 47 )" />
    <path d="M 9 10  L 5.25 0  C 5.25 0  -0.825000000000273 1.18181818181835  0.375 5.45454545454545  C 1.57500000000027 9.72727272727256  9 10  9 10  Z " stroke-width="4" stroke="#232230" fill="none" transform="matrix(1 0 0 1 56 47 )" mask="url(#clip65)" />
  </g>
</svg>