<?xml version="1.0" encoding="utf-8"?>
<svg version="1.1" xmlns:xlink="http://www.w3.org/1999/xlink" width="47px" height="39px" xmlns="http://www.w3.org/2000/svg">
  <defs>
    <mask fill="white" id="clip66">
      <path d="M 47 14.6899999999998  L 25.3076923076923 0.129999999999685  L 0.180769230769066 14.6899999999998  C 0.180769230769066 14.6899999999998  0.994230769230276 38.6533333333336  22.3701923076923 38.7833333333333  C 34.941535322301 38.8597871849626  41.2449946966019 30.513170310724  44.3048954889151 23.6243658160722  C 46.4479647827724 18.7996390076213  47 14.6899999999998  47 14.6899999999998  Z " fill-rule="evenodd" />
    </mask>
  </defs>
  <g transform="matrix(1 0 0 1 -58 -28 )">
    <path d="M 47 14.6899999999998  L 25.3076923076923 0.129999999999685  L 0.180769230769066 14.6899999999998  C 0.180769230769066 14.6899999999998  0.994230769230276 38.6533333333336  22.3701923076923 38.7833333333333  C 34.941535322301 38.8597871849626  41.2449946966019 30.513170310724  44.3048954889151 23.6243658160722  C 46.4479647827724 18.7996390076213  47 14.6899999999998  47 14.6899999999998  Z " fill-rule="nonzero" fill="#ffffff" stroke="none" transform="matrix(1 0 0 1 58 28 )" />
    <path d="M 47 14.6899999999998  L 25.3076923076923 0.129999999999685  L 0.180769230769066 14.6899999999998  C 0.180769230769066 14.6899999999998  0.994230769230276 38.6533333333336  22.3701923076923 38.7833333333333  C 34.941535322301 38.8597871849626  41.2449946966019 30.513170310724  44.3048954889151 23.6243658160722  C 46.4479647827724 18.7996390076213  47 14.6899999999998  47 14.6899999999998  Z " stroke-width="4" stroke="#232230" fill="none" transform="matrix(1 0 0 1 58 28 )" mask="url(#clip66)" />
  </g>
</svg>