<?xml version="1.0" encoding="utf-8"?>
<svg version="1.1" xmlns:xlink="http://www.w3.org/1999/xlink" width="53px" height="31px" xmlns="http://www.w3.org/2000/svg">
  <defs>
    <mask fill="white" id="clip67">
      <path d="M 52.5489361702128 29.9183127109108  C 54.4169789001623 26.4022211424204  49.5268085106388 -0.467266591676035  25.4851063829787 0.0244094488188921  C 1.44340425531866 0.516085489313844  -1.68502936148387 25.0771560464657  0.676595744680851 29.9183127109108  C 1.70419766727506 32.0248205910047  11.207266143656 30.4105785825453  18.7191489361702 26.5714285714286  C 25.2560293213093 23.2305797993625  29.6198581560289 18.6536796536793  29.9957446808511 18.7878787878787  C 30.3716312056733 18.9220779220781  32.1405244433855 20.111221947786  34.5063829787234 22.1428571428571  C 36.6275684193573 23.9643840567007  38.9082695728665 25.3660551069537  40.2813668600904 26.5714285714286  C 43.1859445519021 29.1212121212119  51.9465860136605 31.0520760198419  52.5489361702128 29.9183127109108  Z " fill-rule="evenodd" />
    </mask>
  </defs>
  <g transform="matrix(1 0 0 1 -55 -19 )">
    <path d="M 52.5489361702128 29.9183127109108  C 54.4169789001623 26.4022211424204  49.5268085106388 -0.467266591676035  25.4851063829787 0.0244094488188921  C 1.44340425531866 0.516085489313844  -1.68502936148387 25.0771560464657  0.676595744680851 29.9183127109108  C 1.70419766727506 32.0248205910047  11.207266143656 30.4105785825453  18.7191489361702 26.5714285714286  C 25.2560293213093 23.2305797993625  29.6198581560289 18.6536796536793  29.9957446808511 18.7878787878787  C 30.3716312056733 18.9220779220781  32.1405244433855 20.111221947786  34.5063829787234 22.1428571428571  C 36.6275684193573 23.9643840567007  38.9082695728665 25.3660551069537  40.2813668600904 26.5714285714286  C 43.1859445519021 29.1212121212119  51.9465860136605 31.0520760198419  52.5489361702128 29.9183127109108  Z " fill-rule="nonzero" fill="#232230" stroke="none" transform="matrix(1 0 0 1 55 19 )" />
    <path d="M 52.5489361702128 29.9183127109108  C 54.4169789001623 26.4022211424204  49.5268085106388 -0.467266591676035  25.4851063829787 0.0244094488188921  C 1.44340425531866 0.516085489313844  -1.68502936148387 25.0771560464657  0.676595744680851 29.9183127109108  C 1.70419766727506 32.0248205910047  11.207266143656 30.4105785825453  18.7191489361702 26.5714285714286  C 25.2560293213093 23.2305797993625  29.6198581560289 18.6536796536793  29.9957446808511 18.7878787878787  C 30.3716312056733 18.9220779220781  32.1405244433855 20.111221947786  34.5063829787234 22.1428571428571  C 36.6275684193573 23.9643840567007  38.9082695728665 25.3660551069537  40.2813668600904 26.5714285714286  C 43.1859445519021 29.1212121212119  51.9465860136605 31.0520760198419  52.5489361702128 29.9183127109108  Z " stroke-width="8" stroke="#232230" fill="none" transform="matrix(1 0 0 1 55 19 )" mask="url(#clip67)" />
  </g>
</svg>