<?xml version="1.0" encoding="utf-8"?>
<svg version="1.1" xmlns:xlink="http://www.w3.org/1999/xlink" width="76px" height="70px" xmlns="http://www.w3.org/2000/svg">
  <g transform="matrix(1 0 0 1 -22 -20 )">
    <path d="M 22 20  L 98 20  L 98 90  L 22 90  L 22 20  " fill-rule="nonzero" fill="#cccccc" stroke="none" />
    <path d="M 27 25  L 93 25  L 93 85  L 27 85  L 27 25  " fill-rule="nonzero" fill="#ffffff" stroke="none" />
    <path d="M 66.77 41  C 63.83 41  61.52 38.69  61.52 35.75  C 61.52 32.81  63.83 30.5  66.77 30.5  C 69.71 30.5  72.02 32.81  72.02 35.75  C 72.02 38.69  69.71 41  66.77 41  " fill-rule="nonzero" fill="#cccccc" stroke="none" />
    <path d="M 29 83  L 29 52.2  L 44.5 38.2  L 66.2 52.0526315789474  L 78.6 46.6  L 91 52.0526315789474  L 91 83  L 29 83  " fill-rule="nonzero" fill="#169bd5" stroke="none" />
  </g>
</svg>