<?xml version="1.0" encoding="utf-8"?>
<svg version="1.1" xmlns:xlink="http://www.w3.org/1999/xlink" width="17px" height="19px" xmlns="http://www.w3.org/2000/svg">
  <g transform="matrix(1 0 0 1 -733 -293 )">
    <path d="M 11.7317708333333 0.720982142857143  L 16.2473958333333 5.046875  C 16.3506944444444 5.14583333333333  16.4539930555556 5.27306547619048  16.5572916666667 5.42857142857143  L 11.3333333333333 5.42857142857143  L 11.3333333333333 0.424107142857143  C 11.4956597222222 0.523065476190475  11.6284722222222 0.622023809523807  11.7317708333333 0.720982142857143  Z M 10.2265625 6.48883928571428  C 10.4331597222222 6.68675595238095  10.6840277777778 6.78571428571428  10.9791666666667 6.78571428571428  L 17 6.78571428571428  L 17 17.9821428571429  C 17 18.264880952381  16.8967013888889 18.5052083333333  16.6901041666667 18.703125  C 16.4835069444444 18.9010416666667  16.2326388888889 19  15.9375 19  L 1.0625 19  C 0.767361111111111 19  0.516493055555556 18.9010416666667  0.309895833333333 18.703125  C 0.103298611111111 18.5052083333333  0 18.264880952381  0 17.9821428571429  L 0 1.01785714285714  C 0 0.735119047619047  0.103298611111111 0.494791666666666  0.309895833333333 0.296875  C 0.516493055555556 0.098958333333334  0.767361111111111 0  1.0625 0  L 9.91666666666667 0  L 9.91666666666667 5.76785714285714  C 9.91666666666667 6.05059523809524  10.0199652777778 6.29092261904762  10.2265625 6.48883928571428  Z M 12.650390625 14.8331473214286  C 12.716796875 14.76953125  12.75 14.688244047619  12.75 14.5892857142857  L 12.75 13.9107142857143  C 12.75 13.811755952381  12.716796875 13.73046875  12.650390625 13.6668526785714  C 12.583984375 13.6032366071429  12.4991319444444 13.5714285714286  12.3958333333333 13.5714285714286  L 4.60416666666667 13.5714285714286  C 4.50086805555556 13.5714285714286  4.416015625 13.6032366071429  4.349609375 13.6668526785714  C 4.283203125 13.73046875  4.25 13.811755952381  4.25 13.9107142857143  L 4.25 14.5892857142857  C 4.25 14.688244047619  4.283203125 14.76953125  4.349609375 14.8331473214286  C 4.416015625 14.8967633928571  4.50086805555556 14.9285714285714  4.60416666666667 14.9285714285714  L 12.3958333333333 14.9285714285714  C 12.4991319444444 14.9285714285714  12.583984375 14.8967633928571  12.650390625 14.8331473214286  Z M 12.650390625 12.1188616071429  C 12.716796875 12.0552455357143  12.75 11.9739583333333  12.75 11.875  L 12.75 11.1964285714286  C 12.75 11.0974702380952  12.716796875 11.0161830357143  12.650390625 10.9525669642857  C 12.583984375 10.8889508928571  12.4991319444444 10.8571428571429  12.3958333333333 10.8571428571429  L 4.60416666666667 10.8571428571429  C 4.50086805555556 10.8571428571429  4.416015625 10.8889508928571  4.349609375 10.9525669642857  C 4.283203125 11.0161830357143  4.25 11.0974702380952  4.25 11.1964285714286  L 4.25 11.875  C 4.25 11.9739583333333  4.283203125 12.0552455357143  4.349609375 12.1188616071429  C 4.416015625 12.1824776785714  4.50086805555556 12.2142857142857  4.60416666666667 12.2142857142857  L 12.3958333333333 12.2142857142857  C 12.4991319444444 12.2142857142857  12.583984375 12.1824776785714  12.650390625 12.1188616071429  Z M 12.650390625 9.40457589285714  C 12.716796875 9.34095982142857  12.75 9.25967261904762  12.75 9.16071428571428  L 12.75 8.48214285714286  C 12.75 8.38318452380952  12.716796875 8.30189732142857  12.650390625 8.23828125  C 12.583984375 8.17466517857143  12.4991319444444 8.14285714285714  12.3958333333333 8.14285714285714  L 4.60416666666667 8.14285714285714  C 4.50086805555556 8.14285714285714  4.416015625 8.17466517857143  4.349609375 8.23828125  C 4.283203125 8.30189732142857  4.25 8.38318452380952  4.25 8.48214285714286  L 4.25 9.16071428571428  C 4.25 9.25967261904762  4.283203125 9.34095982142857  4.349609375 9.40457589285714  C 4.416015625 9.46819196428572  4.50086805555556 9.5  4.60416666666667 9.5  L 12.3958333333333 9.5  C 12.4991319444444 9.5  12.583984375 9.46819196428572  12.650390625 9.40457589285714  Z " fill-rule="nonzero" fill="#939090" stroke="none" fill-opacity="0.537254901960784" transform="matrix(1 0 0 1 733 293 )" />
  </g>
</svg>