<?xml version="1.0" encoding="utf-8"?>
<svg version="1.1" xmlns:xlink="http://www.w3.org/1999/xlink" width="14px" height="12px" xmlns="http://www.w3.org/2000/svg">
  <g>
    <path d="M 7.34375 11.859375  C 7.25 11.953125  7.13541666666667 12  7 12  C 6.86458333333333 12  6.75 11.953125  6.65625 11.859375  L 1.78125 7.15625  C 1.72916666666667 7.11458333333333  1.65755208333333 7.046875  1.56640625 6.953125  C 1.47526041666667 6.859375  1.33072916666667 6.68880208333333  1.1328125 6.44140625  C 0.934895833333333 6.19401041666667  0.7578125 5.94010416666667  0.6015625 5.6796875  C 0.4453125 5.41927083333333  0.305989583333333 5.10416666666667  0.18359375 4.734375  C 0.0611979166666667 4.36458333333333  0 4.00520833333333  0 3.65625  C 0 2.51041666666667  0.330729166666667 1.61458333333333  0.9921875 0.96875  C 1.65364583333333 0.322916666666667  2.56770833333333 0  3.734375 0  C 4.05729166666667 0  4.38671875 0.0559895833333326  4.72265625 0.16796875  C 5.05859375 0.279947916666666  5.37109375 0.430989583333333  5.66015625 0.62109375  C 5.94921875 0.811197916666666  6.19791666666667 0.989583333333332  6.40625 1.15625  C 6.61458333333333 1.32291666666667  6.8125 1.5  7 1.6875  C 7.1875 1.5  7.38541666666667 1.32291666666667  7.59375 1.15625  C 7.80208333333333 0.989583333333332  8.05078125 0.811197916666666  8.33984375 0.62109375  C 8.62890625 0.430989583333333  8.94140625 0.279947916666666  9.27734375 0.16796875  C 9.61328125 0.0559895833333326  9.94270833333333 0  10.265625 0  C 11.4322916666667 0  12.3463541666667 0.322916666666667  13.0078125 0.96875  C 13.6692708333333 1.61458333333333  14 2.51041666666667  14 3.65625  C 14 4.80729166666667  13.4036458333333 5.97916666666667  12.2109375 7.171875  L 7.34375 11.859375  Z " fill-rule="nonzero" fill="#666666" stroke="none" fill-opacity="0.690196078431373" />
  </g>
</svg>