<?xml version="1.0" encoding="utf-8"?>
<svg version="1.1" xmlns:xlink="http://www.w3.org/1999/xlink" width="25px" height="24px" xmlns="http://www.w3.org/2000/svg">
  <g transform="matrix(1 0 0 1 -278 -115 )">
    <path d="M 15.33203125 14.71875  C 16.6491386217949 13.4543269230769  17.3076923076923 11.9326923076923  17.3076923076923 10.1538461538462  C 17.3076923076923 8.375  16.6491386217949 6.85336538461538  15.33203125 5.58894230769231  C 14.0149238782051 4.32451923076923  12.4298878205128 3.69230769230769  10.5769230769231 3.69230769230769  C 8.72395833333333 3.69230769230769  7.13892227564103 4.32451923076923  5.82181490384615 5.58894230769231  C 4.50470753205128 6.85336538461538  3.84615384615385 8.375  3.84615384615385 10.1538461538462  C 3.84615384615385 11.9326923076923  4.50470753205128 13.4543269230769  5.82181490384615 14.71875  C 7.13892227564103 15.9831730769231  8.72395833333333 16.6153846153846  10.5769230769231 16.6153846153846  C 12.4298878205128 16.6153846153846  14.0149238782051 15.9831730769231  15.33203125 14.71875  Z M 24.4441105769231 20.8557692307692  C 24.814703525641 21.2115384615385  25 21.6442307692308  25 22.1538461538462  C 25 22.6538461538462  24.8096955128205 23.0865384615385  24.4290865384615 23.4519230769231  C 24.0484775641026 23.8173076923077  23.5977564102564 24  23.0769230769231 24  C 22.5360576923077 24  22.0853365384615 23.8173076923077  21.7247596153846 23.4519230769231  L 16.5715144230769 18.5192307692308  C 14.7786458333333 19.7115384615385  12.7804487179487 20.3076923076923  10.5769230769231 20.3076923076923  C 9.14463141025641 20.3076923076923  7.77493990384615 20.0408653846154  6.46784855769231 19.5072115384615  C 5.16075721153846 18.9735576923077  4.03395432692308 18.2524038461538  3.08743990384615 17.34375  C 2.14092548076923 16.4350961538462  1.38972355769231 15.3533653846154  0.833834134615385 14.0985576923077  C 0.277944711538462 12.84375  0 11.5288461538462  0 10.1538461538462  C 0 8.77884615384615  0.277944711538462 7.46394230769231  0.833834134615385 6.20913461538462  C 1.38972355769231 4.95432692307692  2.14092548076923 3.87259615384616  3.08743990384615 2.96394230769231  C 4.03395432692308 2.05528846153846  5.16075721153846 1.33413461538461  6.46784855769231 0.80048076923077  C 7.77493990384615 0.266826923076922  9.14463141025641 0  10.5769230769231 0  C 12.0092147435897 0  13.37890625 0.266826923076922  14.6859975961538 0.80048076923077  C 15.9930889423077 1.33413461538461  17.1198918269231 2.05528846153846  18.06640625 2.96394230769231  C 19.0129206730769 3.87259615384616  19.7641225961538 4.95432692307692  20.3200120192308 6.20913461538462  C 20.8759014423077 7.46394230769231  21.1538461538462 8.77884615384615  21.1538461538462 10.1538461538462  C 21.1538461538462 12.2692307692308  20.5328525641026 14.1875  19.2908653846154 15.9086538461538  L 24.4441105769231 20.8557692307692  Z " fill-rule="nonzero" fill="#ffffff" stroke="none" transform="matrix(1 0 0 1 278 115 )" />
  </g>
</svg>