<?xml version="1.0" encoding="utf-8"?>
<svg version="1.1" xmlns:xlink="http://www.w3.org/1999/xlink" width="23px" height="20px" xmlns="http://www.w3.org/2000/svg">
  <g>
    <path d="M 12.0647321428571 19.765625  C 11.9107142857143 19.921875  11.7224702380952 20  11.5 20  C 11.2775297619048 20  11.0892857142857 19.921875  10.9352678571429 19.765625  L 2.92633928571429 11.9270833333333  C 2.84077380952381 11.8576388888889  2.72312127976191 11.7447916666667  2.57338169642857 11.5885416666667  C 2.42364211309524 11.4322916666667  2.18619791666667 11.1480034722222  1.86104910714286 10.7356770833333  C 1.53590029761905 10.3233506944444  1.24497767857143 9.90017361111111  0.98828125 9.46614583333333  C 0.731584821428571 9.03211805555556  0.502697172619048 8.50694444444444  0.301618303571429 7.890625  C 0.10053943452381 7.27430555555555  0 6.67534722222222  0 6.09375  C 0 4.18402777777778  0.543340773809524 2.69097222222222  1.63002232142857 1.61458333333333  C 2.71670386904762 0.538194444444444  4.21837797619048 0  6.13504464285714 0  C 6.66555059523809 0  7.20675223214286 0.093315972222221  7.75864955357143 0.279947916666667  C 8.310546875 0.466579861111109  8.82393973214286 0.718315972222221  9.298828125 1.03515625  C 9.77371651785714 1.35199652777778  10.1822916666667 1.64930555555555  10.5245535714286 1.92708333333333  C 10.8668154761905 2.20486111111111  11.1919642857143 2.5  11.5 2.8125  C 11.8080357142857 2.5  12.1331845238095 2.20486111111111  12.4754464285714 1.92708333333333  C 12.8177083333333 1.64930555555555  13.2262834821429 1.35199652777778  13.701171875 1.03515625  C 14.1760602678571 0.718315972222221  14.689453125 0.466579861111109  15.2413504464286 0.279947916666667  C 15.7932477678571 0.093315972222221  16.3344494047619 0  16.8649553571429 0  C 18.7816220238095 0  20.2832961309524 0.538194444444444  21.3699776785714 1.61458333333333  C 22.4566592261905 2.69097222222222  23 4.18402777777778  23 6.09375  C 23 8.01215277777778  22.020275297619 9.96527777777778  20.0608258928571 11.953125  L 12.0647321428571 19.765625  Z " fill-rule="nonzero" fill="#666666" stroke="none" fill-opacity="0.690196078431373" />
  </g>
</svg>