<?xml version="1.0" encoding="utf-8"?>
<svg version="1.1" xmlns:xlink="http://www.w3.org/1999/xlink" width="10px" height="16px" xmlns="http://www.w3.org/2000/svg">
  <g transform="matrix(1 0 0 1 -535 -1070 )">
    <path d="M 9.82817869415807 7.6312625250501  C 9.94272623138603 7.73814295257181  10 7.86105544422178  10 8  C 10 8.13894455577822  9.94272623138603 8.26185704742819  9.82817869415807 8.3687374749499  L 1.8213058419244 15.8396793587174  C 1.70675830469645 15.9465597862391  1.57502863688431 16  1.42611683848797 16  C 1.27720504009164 16  1.1454753722795 15.9465597862391  1.03092783505155 15.8396793587174  L 0.171821305841924 15.0380761523046  C 0.0572737686139748 14.9311957247829  0 14.8082832331329  0 14.6693386773547  C 0 14.5303941215765  0.0572737686139748 14.4074816299265  0.171821305841924 14.3006012024048  L 6.92439862542955 8  L 0.171821305841924 1.69939879759519  C 0.0572737686139748 1.59251837007348  0 1.46960587842351  0 1.33066132264529  C 0 1.19171676686707  0.0572737686139748 1.0688042752171  0.171821305841924 0.96192384769539  L 1.03092783505155 0.160320641282565  C 1.1454753722795 0.0534402137608545  1.27720504009164 0  1.42611683848797 0  C 1.57502863688431 0  1.70675830469645 0.0534402137608545  1.8213058419244 0.160320641282565  L 9.82817869415807 7.6312625250501  Z " fill-rule="nonzero" fill="#706f6f" stroke="none" fill-opacity="0.623529411764706" transform="matrix(1 0 0 1 535 1070 )" />
  </g>
</svg>