<?xml version="1.0" encoding="utf-8"?>
<svg version="1.1" xmlns:xlink="http://www.w3.org/1999/xlink" width="10px" height="16px" xmlns="http://www.w3.org/2000/svg">
  <g transform="matrix(1 0 0 1 -495 -1070 )">
    <path d="M 9.82817869415807 0.96192384769539  C 9.94272623138603 1.0688042752171  10 1.19171676686707  10 1.33066132264529  C 10 1.46960587842351  9.94272623138603 1.59251837007348  9.82817869415807 1.69939879759519  L 3.07560137457045 8  L 9.82817869415807 14.3006012024048  C 9.94272623138603 14.4074816299265  10 14.5303941215765  10 14.6693386773547  C 10 14.8082832331329  9.94272623138603 14.9311957247829  9.82817869415807 15.0380761523046  L 8.96907216494845 15.8396793587174  C 8.8545246277205 15.9465597862391  8.72279495990836 16  8.57388316151203 16  C 8.4249713631157 16  8.29324169530355 15.9465597862391  8.1786941580756 15.8396793587174  L 0.171821305841924 8.3687374749499  C 0.0572737686139748 8.26185704742819  0 8.13894455577822  0 8  C 0 7.86105544422178  0.0572737686139748 7.73814295257181  0.171821305841924 7.6312625250501  L 8.1786941580756 0.160320641282565  C 8.29324169530355 0.0534402137608545  8.4249713631157 0  8.57388316151203 0  C 8.72279495990836 0  8.8545246277205 0.0534402137608545  8.96907216494845 0.160320641282565  L 9.82817869415807 0.96192384769539  Z " fill-rule="nonzero" fill="#706f6f" stroke="none" fill-opacity="0.623529411764706" transform="matrix(1 0 0 1 495 1070 )" />
  </g>
</svg>