<?xml version="1.0" encoding="utf-8"?>
<svg version="1.1" xmlns:xlink="http://www.w3.org/1999/xlink" width="15px" height="16px" xmlns="http://www.w3.org/2000/svg">
  <g transform="matrix(1 0 0 1 -472 -1070 )">
    <path d="M 8.88198757763975 14.3006012024048  C 8.98550724637681 14.4074816299265  9.03726708074534 14.5303941215765  9.03726708074534 14.6693386773547  C 9.03726708074534 14.8082832331329  8.98550724637681 14.9311957247829  8.88198757763975 15.0380761523046  L 8.1055900621118 15.8396793587174  C 8.00207039337474 15.9465597862391  7.88302277432712 16  7.74844720496894 16  C 7.61387163561077 16  7.49482401656315 15.9465597862391  7.39130434782609 15.8396793587174  L 0.15527950310559 8.3687374749499  C 0.0517598343685301 8.26185704742819  0 8.13894455577822  0 8  C 0 7.86105544422178  0.0517598343685301 7.73814295257181  0.15527950310559 7.6312625250501  L 7.39130434782609 0.160320641282565  C 7.49482401656315 0.0534402137608545  7.61387163561077 0  7.74844720496894 0  C 7.88302277432712 0  8.00207039337474 0.0534402137608545  8.1055900621118 0.160320641282565  L 8.88198757763975 0.96192384769539  C 8.98550724637681 1.0688042752171  9.03726708074534 1.19171676686707  9.03726708074534 1.33066132264529  C 9.03726708074534 1.46960587842351  8.98550724637681 1.59251837007348  8.88198757763975 1.69939879759519  L 2.77950310559006 8  L 8.88198757763975 14.3006012024048  Z M 14.8447204968944 14.3006012024048  C 14.9482401656315 14.4074816299265  15 14.5303941215765  15 14.6693386773547  C 15 14.8082832331329  14.9482401656315 14.9311957247829  14.8447204968944 15.0380761523046  L 14.0683229813665 15.8396793587174  C 13.9648033126294 15.9465597862391  13.8457556935818 16  13.7111801242236 16  C 13.5766045548654 16  13.4575569358178 15.9465597862391  13.3540372670807 15.8396793587174  L 6.11801242236025 8.3687374749499  C 6.01449275362319 8.26185704742819  5.96273291925466 8.13894455577822  5.96273291925466 8  C 5.96273291925466 7.86105544422178  6.01449275362319 7.73814295257181  6.11801242236025 7.6312625250501  L 13.3540372670807 0.160320641282565  C 13.4575569358178 0.0534402137608545  13.5766045548654 0  13.7111801242236 0  C 13.8457556935818 0  13.9648033126294 0.0534402137608545  14.0683229813665 0.160320641282565  L 14.8447204968944 0.96192384769539  C 14.9482401656315 1.0688042752171  15 1.19171676686707  15 1.33066132264529  C 15 1.46960587842351  14.9482401656315 1.59251837007348  14.8447204968944 1.69939879759519  L 8.74223602484472 8  L 14.8447204968944 14.3006012024048  Z " fill-rule="nonzero" fill="#706f6f" stroke="none" fill-opacity="0.623529411764706" transform="matrix(1 0 0 1 472 1070 )" />
  </g>
</svg>