<?xml version="1.0" encoding="utf-8"?>
<svg version="1.1" xmlns:xlink="http://www.w3.org/1999/xlink" width="652px" height="60px" viewBox="184 705  652 60" xmlns="http://www.w3.org/2000/svg">
  <path d="M 185 710  A 4 4 0 0 1 189 706 L 831 706  A 4 4 0 0 1 835 710 L 835 760  A 4 4 0 0 1 831 764 L 189 764  A 4 4 0 0 1 185 760 L 185 710  Z " fill-rule="nonzero" fill="#f0f0f0" stroke="none" />
  <path d="M 184.5 710  A 4.5 4.5 0 0 1 189 705.5 L 831 705.5  A 4.5 4.5 0 0 1 835.5 710 L 835.5 760  A 4.5 4.5 0 0 1 831 764.5 L 189 764.5  A 4.5 4.5 0 0 1 184.5 760 L 184.5 710  Z " stroke-width="1" stroke="#797979" fill="none" stroke-opacity="0.231372549019608" />
</svg>