<?xml version="1.0" encoding="utf-8"?>
<svg version="1.1" xmlns:xlink="http://www.w3.org/1999/xlink" width="26px" height="21px" xmlns="http://www.w3.org/2000/svg">
  <g transform="matrix(1 0 0 1 -830 -129 )">
    <path d="M 10.5790816326531 19.203515625  C 10.5680272108844 19.263671875  10.5790816326531 19.3375  10.6122448979592 19.425  C 10.6122448979592 19.46875  10.6177721088435 19.578125  10.6288265306122 19.753125  C 10.639880952381 19.928125  10.6426445578231 20.073046875  10.6371173469388 20.187890625  C 10.6315901360544 20.302734375  10.6150085034014 20.43125  10.5873724489796 20.5734375  C 10.5597363945578 20.715625  10.5044642857143 20.822265625  10.421556122449 20.893359375  C 10.3386479591837 20.964453125  10.2253401360544 21  10.0816326530612 21  L 4.77551020408163 21  C 3.46003401360544 21  2.33524659863946 20.537890625  1.40114795918367 19.613671875  C 0.467049319727891 18.689453125  0 17.5765625  0 16.275  L 0 4.725  C 0 3.4234375  0.467049319727891 2.310546875  1.40114795918367 1.386328125  C 2.33524659863946 0.462109374999997  3.46003401360544 0  4.77551020408163 0  L 10.0816326530612 0  C 10.2253401360544 0  10.3497023809524 0.051953124999997  10.4547193877551 0.155859375  C 10.5597363945578 0.259765624999999  10.6122448979592 0.382812499999999  10.6122448979592 0.525  C 10.6122448979592 0.568749999999998  10.6177721088435 0.678124999999999  10.6288265306122 0.853125  C 10.639880952381 1.028125  10.6426445578231 1.173046875  10.6371173469388 1.287890625  C 10.6315901360544 1.402734375  10.6150085034014 1.53125  10.5873724489796 1.6734375  C 10.5597363945578 1.815625  10.5044642857143 1.922265625  10.421556122449 1.993359375  C 10.3386479591837 2.064453125  10.2253401360544 2.1  10.0816326530612 2.1  L 4.77551020408163 2.1  C 4.04591836734694 2.1  3.42134353741497 2.35703125  2.90178571428571 2.87109375  C 2.38222789115646 3.38515625  2.12244897959184 4.003125  2.12244897959184 4.725  L 2.12244897959184 16.275  C 2.12244897959184 16.996875  2.38222789115646 17.61484375  2.90178571428571 18.12890625  C 3.42134353741497 18.64296875  4.04591836734694 18.9  4.77551020408163 18.9  L 9.55102040816327 18.9  L 9.73341836734694 18.9  L 9.94897959183673 18.9  C 9.94897959183673 18.9  10.0125425170068 18.90546875  10.1396683673469 18.91640625  C 10.2667942176871 18.92734375  10.3303571428571 18.94375  10.3303571428571 18.965625  C 10.3303571428571 18.9875  10.374574829932 19.017578125  10.4630102040816 19.055859375  C 10.5514455782313 19.094140625  10.5901360544218 19.143359375  10.5790816326531 19.203515625  Z M 25.6849489795918 9.76171875  C 25.8949829931973 9.96953125  26 10.215625  26 10.5  C 26 10.784375  25.8949829931973 11.03046875  25.6849489795918 11.23828125  L 16.6645408163265 20.16328125  C 16.4545068027211 20.37109375  16.2057823129252 20.475  15.9183673469388 20.475  C 15.6309523809524 20.475  15.3822278911565 20.37109375  15.172193877551 20.16328125  C 14.9621598639456 19.95546875  14.8571428571429 19.709375  14.8571428571429 19.425  L 14.8571428571429 14.7  L 7.42857142857143 14.7  C 7.14115646258503 14.7  6.89243197278912 14.59609375  6.68239795918367 14.38828125  C 6.47236394557823 14.18046875  6.36734693877551 13.934375  6.36734693877551 13.65  L 6.36734693877551 7.35  C 6.36734693877551 7.065625  6.47236394557823 6.81953125  6.68239795918367 6.61171875  C 6.89243197278912 6.40390625  7.14115646258503 6.3  7.42857142857143 6.3  L 14.8571428571429 6.3  L 14.8571428571429 1.575  C 14.8571428571429 1.290625  14.9621598639456 1.04453125  15.172193877551 0.836718749999999  C 15.3822278911565 0.628906249999999  15.6309523809524 0.525  15.9183673469388 0.525  C 16.2057823129252 0.525  16.4545068027211 0.628906249999999  16.6645408163265 0.836718749999999  L 25.6849489795918 9.76171875  Z " fill-rule="nonzero" fill="#000000" stroke="none" fill-opacity="0.596078431372549" transform="matrix(1 0 0 1 830 129 )" />
  </g>
</svg>